<?xml version="1.0" encoding="utf-8"?>
<!-- Generator: Adobe Illustrator 22.1.0, SVG Export Plug-In . SVG Version: 6.00 Build 0)  -->
<svg version="1.1" id="Layer_1" xmlns="http://www.w3.org/2000/svg" xmlns:xlink="http://www.w3.org/1999/xlink" x="0px" y="0px"
	 viewBox="0 0 512 512" style="enable-background:new 0 0 512 512;" xml:space="preserve">
<style type="text/css">
	.st0{fill:#FF9801;}
</style>
<path class="st0" d="M494.6,164.5c-4.7-3.9-111.7-89.9-135.3-108.7C337.2,38.2,299.4,0,256,0c-43.2,0-80.6,37.7-103.3,55.9
	C128.2,75.3,21.6,161.1,17.5,164.4C6.4,173.5,0,187.1,0,201.5V464c0,26.5,21.5,48,48,48h416c26.5,0,48-21.5,48-48V201.5
	C512,187.2,505.6,173.6,494.6,164.5z M464,458c0,3.3-2.7,6-6,6H54c-3.3,0-6-2.7-6-6V204.3c0-1.8,0.8-3.5,2.2-4.7
	C66.1,186.9,159,112.1,182.6,93.4C200.8,78.9,232.4,48,256,48c23.7,0,55.9,31.4,73.4,45.4c23.6,18.7,116.5,93.5,132.4,106.3
	c1.4,1.1,2.2,2.9,2.2,4.7V458z M432,270.3c4.2,5.2,3.5,12.8-1.7,17c-29,23.3-59.3,47.6-70.9,56.9C336.6,362.3,299.2,400,256,400
	c-43.5,0-81.3-38.2-103.3-55.9c-11.3-9-41.7-33.4-70.9-56.9c-5.2-4.2-6-11.8-1.7-17l15.3-18.5c4.2-5.1,11.7-5.8,16.8-1.7
	c28.6,23,58.6,47,70.6,56.6c17.6,14,49.7,45.4,73.4,45.4c23.6,0,55.2-30.9,73.4-45.4c12-9.5,41.9-33.6,70.6-56.6
	c5.1-4.1,12.6-3.3,16.8,1.7L432,270.3L432,270.3z"/>
</svg>
